<svg viewBox="0 0 14 14" xmlns="http://www.w3.org/2000/svg"><path d="m12.730207 8.2675506c-.128038-.148311-.346769-.107766-.515885-.07416-.40652.07255-.848784.156847-1.2425-.01227.703141-1.10966 1.25637-2.321217 1.565795-3.599994.112566-.48601.199525-.983223.182987-1.483637-.01227-.280083-.05121-.578304-.222466-.810373-.423591-.558564-1.037639-.965618-1.714638-1.147538-.8455827-.22940097-1.7525167-.16111397-2.5842277.09603-.06882.01387-.136574-.01707-.203794-.02561-.754889-.153112-1.587134-.09283-2.2417271.344101-.7858316-.28275-1.6303472-.453467-2.4668604-.365974-.62205.06455-1.2467674.353704-1.6036726.88346-.451333.660995-.5126844 1.504977-.4406632 2.279605.1451094 1.02857.39585 2.041135.7148774 3.028626.2101952.615648.4417301 1.236098.815707 1.773856.1899227.264078.4422637.53029.7820972.571902.3019556.03681.5751028-.150444.760224-.372376.3200944-.383046.649258-.759157.990692-1.122998.222999.109366.4652037.172318.7127434.19099-.1339062.15898-.2443387.366508-.4577349.428926-.2875514.110966-.624184.09603-.877592.287552-.1461764.104564-.1531118.332364-.021873.4524.2374033.230468.5873731.280082.9031995.306757.4475986.03414.8999987-.116301 1.2398317-.409721-.0021.7116764.0011 1.4254874.08109 2.1334294.04001.414522.218731.827444.534024 1.106459.297154.259276.720746.313159 1.097923.24754.370243-.07042.750622-.181387 1.039774-.434262.30729-.271013.438529-.6802.4993467-1.072849.110432-.703674.19419-1.410549.274214-2.1174244.791166.133372 1.686363-.01814 2.277471-.595909.126437-.118968.246473-.324896.121636-.486543zm-1.755718-6.692106c.474807.18032.896798.493479 1.213691.889862.150978.189389.170184.443864.179787.676466.0069.55483-.105098 1.102725-.24754 1.636216-.272614.987491-.686602 1.933903-1.206755 2.815229-.05122.08696-.107232.170717-.169117.250208-.0048-.02401-.0144-.07309-.01921-.09763.06455-.16965.158981-.329697.195791-.510017.130172-.508417.02027-1.031771-.02667-1.543388-.04908-.482809.115767-.952815.111499-1.434557.01867-.235802-.07469-.458801-.165382-.670597-.328096-.73355-.8498497-1.386009-1.5193807-1.834141-.163248-.112033-.345702-.190456-.508416-.303022.711676-.152579 1.4751007-.133373 2.1611697.124836zm-.433727 4.118014c.04161.571368.207527 1.184882-.06189 1.726909-.361173-.718612-.8279777-1.404681-.9906917-2.204917-.04588-.254475-.05762-.576703.168583-.753822.287018-.203794.6620617-.157913.9938927-.137641-.01441.458269-.155246.908001-.109366 1.369471zm-6.4568363 3.384997c-.1296382.152578-.3046231.334499-.5254882.289152-.2582094-.074689-.4225245-.310491-.566567-.522287-.3889146-.62205-.6231169-1.324657-.8381136-2.021929-.2406043-.82531-.4433307-1.663957-.5601651-2.516475-.05815-.648725-.021873-1.344397.309958-1.922167.2486066-.437462.7122099-.716478 1.1992868-.807705.7799632-.14991 1.5796655.0091 2.3281528.237404-.3302307.362773-.5873731.790099-.737284 1.25797-.2043269.624718-.2976877 1.289447-.2486066 1.946174.028275.462536.016005.927207-.048548 1.386008-.081091.59911.1595137 1.215292.6044448 1.619678-.3030227.354238-.624184.691937-.9176038 1.054711zm.6828679-2.146232c-.076289-.3393.023474-.680734.034677-1.020568.026141-.384646-.00107-.769827-.00854-1.154473.3595726-.232602.7799632-.414523 1.2158249-.389448.2256668.0096.4337278.169116.4881438.391582.197925.787965.259277 1.665024-.120035 2.411377-.132306.288085-.239537.586306-.3318314.888795-.6305858.0064-1.1667438-.526555-1.2782434-1.126732zm1.9621787 2.109421c-.39585.536158-1.1880839.638589-1.7605192.346769.2822165-.130705.6124471-.120569.8850608-.281683.2635444-.141908.3681084-.454.6145814-.614581.268345-.03788.464137.36064.26141.548962zm3.3951337-.626318c-.1504447.242205-.09763.537759-.1344397.806638-.08643.753822-.171251 1.5087114-.293953 2.2577324-.05815.359039-.210729.740485-.549496.919204-.347302.176586-.750621.287552-1.141136.227267-.370776-.06508-.604445-.410787-.709542-.74742-.07682-.282216-.08483-.577237-.106699-.867989-.03734-.70154-.03788-1.4046814-.01974-2.1067544.01547-.274214-.12537-.559632-.370242-.693004-.118435-.06669-.257143-.07576-.389448-.08643.10403-.515885.418256-.96135.526021-1.476702.139775-.637521.06242-1.301183-.08056-1.930702-.06989-.314226-.308891-.592175-.626851-.668464-.4897444-.123236-.9837566.06829-1.4217524.273147.055483-.711676.2459392-1.440424.681801-2.018194.3206278-.429994.8178414-.717012 1.3486644-.785832.875991-.1115 1.795729.129638 2.491934.677533.575103.454534 1.0296367 1.070182 1.2745087 1.762653-.407053-.0144-.8685227-.03094-1.1976857.251807-.298755.251808-.337166.681268-.269946 1.041907.155779.857853.662061 1.587135 1.0355047 2.358562.09923.180853.232602.338767.359572.500948-.150978.07629-.319561.149377-.405453.304623zm1.047775.606579c-.268879.03201-.548428.04161-.807705-.04748.0011-.14671-.0069-.320628.110966-.429994.09336-.06882.2262-.132306.333965-.05708.458802.241671.992293.123769 1.480437.06455-.298222.290219-.711143.425725-1.117663.470005zm-1.4094817-4.453046c-.09549.07842.0075.195792.08963.232602.1989917.116835.4716057-.04641.4780077-.27368-.179786-.08376-.4054527-.07522-.5681677.04108zm-3.522105.362774c.08483-.04801.174452-.179786.07629-.259276-.139774-.113634-.343034-.135507-.5132175-.08963-.05495.01921-.1125665.05655-.1013632.12377.039478.228334.3451684.367042.5377587.225133z" stroke="#fff"/></svg>