<svg enable-background="new 0 0 32 32" viewBox="0 0 32 32" xmlns="http://www.w3.org/2000/svg"><path d="m12.75 22c0 .414-.336.75-.75.75s-.75-.336-.75-.75.336-.75.75-.75.75.336.75.75zm15.064-4.74h.215c1.345 0 2.603-.719 3.281-1.875.066-.112.066-.252 0-.364-.613-1.044-1.664-1.718-2.857-1.848-.111-1.225-.83-2.331-1.932-2.939-.107-.061-.239-.061-.349 0-1.2.665-1.946 1.919-1.946 3.273 0 .768.241 1.514.679 2.138h-2.545v-3.645c0-.199-.161-.36-.36-.36h-3.64v-7.64c0-.199-.161-.36-.36-.36h-4c-.199 0-.36.161-.36.36v3.64h-3.64c-.199 0-.36.161-.36.36v3.64h-3.64c-.199 0-.36.161-.36.36v3.642h-4.64c-.096 0-.187.038-.254.105-.068.067-.105.159-.105.254v.898c0 2.826 1.148 5.394 3.011 7.277.033.058.081.105.139.138 1.929 1.882 4.586 3.046 7.516 3.046 8.837 0 15.814-5.913 16.507-10.1zm-17.767 6.387c.19-.057.299-.257.243-.447s-.256-.301-.448-.242c-1.425.423-3.499.67-5.71.682-1.716-1.751-2.772-4.127-2.772-6.74v-.539l24.34.003c.148 0 .282-.091.336-.23s.017-.296-.094-.396c-.633-.574-.995-1.387-.995-2.231 0-1.026.531-1.981 1.4-2.54.869.558 1.4 1.513 1.4 2.54v.004c0 .196.156.355.353.36 1.005.022 1.915.517 2.474 1.333-.57.83-1.526 1.337-2.545 1.337h-.531c-.187 0-.343.143-.358.329-.337 3.844-7.287 9.771-15.834 9.771-2.438 0-4.673-.863-6.404-2.294 1.987-.06 3.825-.308 5.145-.7zm8.313-11.287h3.279v3.28h-3.279zm-4 0h3.28v3.28h-3.28zm-4 0h3.28v3.28h-3.28zm-4 0h3.28v3.28h-3.28zm8-4h3.28v3.28h-3.28zm-4 0h3.28v3.28h-3.28zm4-4h3.28v3.28h-3.28z" stroke="#fff"/><path d="m0 0h32v32h-32z" fill="none"/></svg>