<svg viewBox="0 0 24 24" xmlns="http://www.w3.org/2000/svg"><path d="m0 0h24v24h-24z" fill="#fff" opacity="0"/><g fill="white"><path d="m13 8a3 3 0 0 1 3 3 1 1 0 0 0 2 0 5 5 0 0 0 -5-5 1 1 0 0 0 0 2z"/><path d="m13 4a7 7 0 0 1 7 7 1 1 0 0 0 2 0 9 9 0 0 0 -9-9 1 1 0 0 0 0 2z"/><path d="m21.75 15.91a1 1 0 0 0 -.72-.65l-6-1.37a1 1 0 0 0 -.92.26c-.14.13-.15.14-.8 1.38a9.91 9.91 0 0 1 -4.87-4.89c1.27-.64 1.28-.64 1.41-.79a1 1 0 0 0 .26-.92l-1.37-5.93a1 1 0 0 0 -.65-.72 3.79 3.79 0 0 0 -.72-.18 3.94 3.94 0 0 0 -.77-.1 4.6 4.6 0 0 0 -4.6 4.6 15.42 15.42 0 0 0 15.4 15.4 4.6 4.6 0 0 0 4.6-4.6 4.77 4.77 0 0 0 -.06-.76 4.34 4.34 0 0 0 -.19-.73z"/></g></svg>